<svg xmlns="http://www.w3.org/2000/svg" width="24" height="24" viewBox="0 0 24 24" fill="none" stroke="currentColor" stroke-width="2" stroke-linecap="round" stroke-linejoin="round" class="lucide lucide-brain"><path d="M9.5 2A2.5 2.5 0 0 1 12 4.5v1.13a.5.5 0 0 0 .5.5h1.17a2.5 2.5 0 0 1 1.66 4.33L16.5 12h-1.33a.5.5 0 0 0-.5.5v1.17a2.5 2.5 0 0 1-4.33 1.66L8.5 15h.83a.5.5 0 0 0 .5-.5v-1.17a2.5 2.5 0 0 1 4.33-1.66L15.5 13H14a.5.5 0 0 0-.5.5v1.17a2.5 2.5 0 0 1-4.33 1.66L7.33 16H6.5a.5.5 0 0 0-.5.5v1.13A2.5 2.5 0 0 1 3.5 20.5a2.5 2.5 0 0 1 0-5 .5.5 0 0 0 .5-.5V14a2.5 2.5 0 0 1 2.5-2.5h1.17a.5.5 0 0 0 .5-.5V10a2.5 2.5 0 0 1-1.66-4.33L4.5 4.5h1.33a.5.5 0 0 0 .5-.5V2.83A2.5 2.5 0 0 1 9.5 2Z"/><path d="M12 11.5a2.5 2.5 0 0 1 2.5 2.5v1.17a.5.5 0 0 0 .5.5h.33a2.5 2.5 0 0 1-1.66 4.33L12.5 21h-1.33a.5.5 0 0 0-.5.5v1.13a2.5 2.5 0 0 1-5 0 .5.5 0 0 0-.5-.5V21a2.5 2.5 0 0 1-2.5-2.5h.83a.5.5 0 0 0 .5-.5v-1.17a2.5 2.5 0 0 1 4.33-1.66L10 15h.83a.5.5 0 0 0 .5-.5v-1.17a2.5 2.5 0 0 1 4.33-1.66L16.5 13H15a.5.5 0 0 0-.5.5v1.13a2.5 2.5 0 0 1-5 0A.5.5 0 0 0 9 14V13a2.5 2.5 0 0 1 2.5-2.5Z"/></svg>